<svg id="visual" viewBox="0 0 900 360" width="900" height="360" xmlns="http://www.w3.org/2000/svg" xmlns:xlink="http://www.w3.org/1999/xlink" version="1.1"><path d="M0 179L18.8 188C37.7 197 75.3 215 112.8 223.5C150.3 232 187.7 231 225.2 214.7C262.7 198.3 300.3 166.7 337.8 146.7C375.3 126.7 412.7 118.3 450.2 124.7C487.7 131 525.3 152 562.8 155C600.3 158 637.7 143 675.2 153C712.7 163 750.3 198 787.8 190.2C825.3 182.3 862.7 131.7 881.3 106.3L900 81L900 0L881.3 0C862.7 0 825.3 0 787.8 0C750.3 0 712.7 0 675.2 0C637.7 0 600.3 0 562.8 0C525.3 0 487.7 0 450.2 0C412.7 0 375.3 0 337.8 0C300.3 0 262.7 0 225.2 0C187.7 0 150.3 0 112.8 0C75.3 0 37.7 0 18.8 0L0 0Z" fill="#a6fbb2" stroke-linecap="round" stroke-linejoin="miter"></path></svg>